<svg xmlns="http://www.w3.org/2000/svg" viewBox="0 0 1600 900" fill="none">
  <defs>
    <linearGradient id="bg" x1="130" y1="60" x2="1490" y2="870" gradientUnits="userSpaceOnUse">
      <stop offset="0" stop-color="#166534"/>
      <stop offset="0.44" stop-color="#0F172A"/>
      <stop offset="1" stop-color="#0F766E"/>
    </linearGradient>
    <linearGradient id="card" x1="0" y1="0" x2="1" y2="1">
      <stop offset="0" stop-color="#86EFAC" stop-opacity="0.24"/>
      <stop offset="1" stop-color="#2DD4BF" stop-opacity="0.08"/>
    </linearGradient>
    <filter id="shadow" x="-20%" y="-20%" width="140%" height="140%">
      <feDropShadow dx="0" dy="18" stdDeviation="16" flood-color="#020617" flood-opacity="0.34"/>
    </filter>
  </defs>

  <rect width="1600" height="900" rx="48" fill="url(#bg)"/>
  <circle cx="256" cy="192" r="190" fill="#22C55E" fill-opacity="0.08"/>
  <circle cx="1322" cy="742" r="236" fill="#14B8A6" fill-opacity="0.08"/>

  <g filter="url(#shadow)">
    <rect x="170" y="154" width="336" height="122" rx="28" fill="#0B1120" stroke="#86EFAC" stroke-opacity="0.18"/>
    <rect x="170" y="334" width="336" height="122" rx="28" fill="#0B1120" stroke="#86EFAC" stroke-opacity="0.18"/>
    <rect x="170" y="514" width="336" height="122" rx="28" fill="#0B1120" stroke="#86EFAC" stroke-opacity="0.18"/>
    <rect x="170" y="694" width="336" height="122" rx="28" fill="#0B1120" stroke="#86EFAC" stroke-opacity="0.18"/>

    <rect x="1094" y="154" width="336" height="122" rx="28" fill="#0B1120" stroke="#5EEAD4" stroke-opacity="0.18"/>
    <rect x="1094" y="334" width="336" height="122" rx="28" fill="#0B1120" stroke="#5EEAD4" stroke-opacity="0.18"/>
    <rect x="1094" y="514" width="336" height="122" rx="28" fill="#0B1120" stroke="#5EEAD4" stroke-opacity="0.18"/>
    <rect x="1094" y="694" width="336" height="122" rx="28" fill="#0B1120" stroke="#5EEAD4" stroke-opacity="0.18"/>
  </g>

  <g opacity="0.95">
    <path d="M506 215c120 0 176 56 290 56s172-74 298-74" stroke="#BBF7D0" stroke-width="8" stroke-linecap="round" stroke-dasharray="10 18"/>
    <path d="M506 395c108 0 176 44 288 44s180-46 300-46" stroke="#99F6E4" stroke-width="8" stroke-linecap="round" stroke-dasharray="10 18"/>
    <path d="M506 575c120 0 182-52 304-52s176 54 284 54" stroke="#BBF7D0" stroke-width="8" stroke-linecap="round" stroke-dasharray="10 18"/>
    <path d="M506 755c122 0 182-34 290-34s174 34 298 34" stroke="#99F6E4" stroke-width="8" stroke-linecap="round" stroke-dasharray="10 18"/>
    <circle cx="506" cy="215" r="16" fill="#BBF7D0"/>
    <circle cx="1094" cy="197" r="16" fill="#99F6E4"/>
    <circle cx="506" cy="395" r="16" fill="#BBF7D0"/>
    <circle cx="1094" cy="393" r="16" fill="#99F6E4"/>
    <circle cx="506" cy="575" r="16" fill="#BBF7D0"/>
    <circle cx="1094" cy="577" r="16" fill="#99F6E4"/>
    <circle cx="506" cy="755" r="16" fill="#BBF7D0"/>
    <circle cx="1094" cy="755" r="16" fill="#99F6E4"/>
  </g>

  <g opacity="0.72">
    <rect x="586" y="146" width="428" height="670" rx="44" fill="#111827" fill-opacity="0.34" stroke="#F8FAFC" stroke-opacity="0.08"/>
    <rect x="640" y="220" width="126" height="126" rx="28" fill="url(#card)"/>
    <rect x="834" y="220" width="126" height="126" rx="28" fill="url(#card)"/>
    <rect x="640" y="408" width="320" height="26" rx="13" fill="#F8FAFC" fill-opacity="0.12"/>
    <rect x="640" y="460" width="256" height="26" rx="13" fill="#F8FAFC" fill-opacity="0.09"/>
    <rect x="640" y="572" width="126" height="126" rx="28" fill="url(#card)"/>
    <rect x="834" y="572" width="126" height="126" rx="28" fill="url(#card)"/>
  </g>

  <rect x="96" y="96" width="1408" height="708" rx="38" stroke="#F8FAFC" stroke-opacity="0.08" stroke-width="2"/>
</svg>
