<svg xmlns="http://www.w3.org/2000/svg" viewBox="0 0 1600 900" fill="none">
  <defs>
    <linearGradient id="bg" x1="180" y1="80" x2="1450" y2="860" gradientUnits="userSpaceOnUse">
      <stop offset="0" stop-color="#1E1B4B"/>
      <stop offset="0.52" stop-color="#0F172A"/>
      <stop offset="1" stop-color="#3F2A56"/>
    </linearGradient>
    <linearGradient id="panel" x1="0" y1="0" x2="1" y2="1">
      <stop offset="0" stop-color="#F3D9A4" stop-opacity="0.26"/>
      <stop offset="1" stop-color="#EAB308" stop-opacity="0.08"/>
    </linearGradient>
    <radialGradient id="glow" cx="0" cy="0" r="1" gradientUnits="userSpaceOnUse" gradientTransform="translate(1180 240) rotate(90) scale(250 250)">
      <stop stop-color="#F59E0B" stop-opacity="0.28"/>
      <stop offset="1" stop-color="#F59E0B" stop-opacity="0"/>
    </radialGradient>
    <pattern id="grain" width="90" height="90" patternUnits="userSpaceOnUse">
      <circle cx="14" cy="18" r="1.6" fill="#F8FAFC" fill-opacity="0.04"/>
      <circle cx="58" cy="30" r="1.3" fill="#F8FAFC" fill-opacity="0.04"/>
      <circle cx="34" cy="60" r="1.1" fill="#F8FAFC" fill-opacity="0.05"/>
      <circle cx="74" cy="74" r="1.4" fill="#F8FAFC" fill-opacity="0.03"/>
    </pattern>
    <filter id="shadow" x="-20%" y="-20%" width="140%" height="140%">
      <feDropShadow dx="0" dy="18" stdDeviation="18" flood-color="#020617" flood-opacity="0.38"/>
    </filter>
  </defs>

  <rect width="1600" height="900" rx="48" fill="url(#bg)"/>
  <rect width="1600" height="900" rx="48" fill="url(#grain)"/>
  <rect x="0" y="0" width="1600" height="900" fill="url(#glow)"/>

  <circle cx="290" cy="160" r="210" fill="#C084FC" fill-opacity="0.08"/>
  <circle cx="1310" cy="730" r="260" fill="#F59E0B" fill-opacity="0.08"/>

  <g opacity="0.7" filter="url(#shadow)">
    <rect x="210" y="168" width="610" height="610" rx="40" fill="#0B1120" stroke="#EAB308" stroke-opacity="0.26" stroke-width="3"/>
    <rect x="250" y="208" width="255" height="255" rx="24" fill="url(#panel)" stroke="#F8FAFC" stroke-opacity="0.08"/>
    <rect x="525" y="208" width="255" height="255" rx="24" fill="url(#panel)" stroke="#F8FAFC" stroke-opacity="0.08"/>
    <rect x="250" y="483" width="255" height="255" rx="24" fill="url(#panel)" stroke="#F8FAFC" stroke-opacity="0.08"/>
    <rect x="525" y="483" width="255" height="255" rx="24" fill="url(#panel)" stroke="#F8FAFC" stroke-opacity="0.08"/>
    <path d="M377 277c45-36 121-26 159 25 31 42 32 103 3 145-46 67-149 84-212 36-65-49-74-147-18-206 11-12 22-20 34-27 10 22 27 41 51 55 46 29 97 32 139 13-8 55-44 105-102 126" fill="#F8FAFC" fill-opacity="0.16"/>
    <path d="M615 320c22-22 54-36 89-36 70 0 127 57 127 127 0 34-14 66-36 89" stroke="#F8FAFC" stroke-opacity="0.18" stroke-width="22" stroke-linecap="round"/>
    <path d="M318 545h118M329 585h168M575 585h120M585 626h102M334 662h151" stroke="#F8FAFC" stroke-opacity="0.16" stroke-width="16" stroke-linecap="round"/>
  </g>

  <g transform="translate(936 132)">
    <circle cx="220" cy="220" r="124" stroke="#FCD34D" stroke-opacity="0.9" stroke-width="24"/>
    <circle cx="220" cy="220" r="82" stroke="#F8FAFC" stroke-opacity="0.18" stroke-width="4"/>
    <path d="M306 306l132 132" stroke="#FCD34D" stroke-width="30" stroke-linecap="round"/>
    <circle cx="220" cy="220" r="168" stroke="#F8FAFC" stroke-opacity="0.06" stroke-width="2"/>
  </g>

  <path d="M1080 540c78-34 174-23 243 34 65 54 98 139 84 219H953c11-108 54-196 127-253Z" fill="#F8FAFC" fill-opacity="0.08"/>
  <path d="M1112 458c0-57 47-104 104-104s104 47 104 104c0 35-18 67-46 86-18 12-29 32-29 54v17h-58v-17c0-22-11-42-29-54-28-19-46-51-46-86Z" fill="#F8FAFC" fill-opacity="0.1"/>

  <rect x="94" y="94" width="1412" height="712" rx="38" stroke="#F8FAFC" stroke-opacity="0.08" stroke-width="2"/>
</svg>
